<svg xmlns="http://www.w3.org/2000/svg" viewBox="0 0 600 400" width="600" height="400" role="img" aria-label="Visualizaciones para Telegram">
<defs>
<linearGradient id="bg-telegram-vistas" x1="0" y1="0" x2="1" y2="1">
<stop offset="0" stop-color="#171331"/><stop offset="1" stop-color="#0c0a18"/>
</linearGradient>
<radialGradient id="halo-telegram-vistas" cx="0.5" cy="0.42" r="0.62">
<stop offset="0" stop-color="#229ED9" stop-opacity="0.42"/>
<stop offset="1" stop-color="#229ED9" stop-opacity="0"/>
</radialGradient>
</defs>
<rect width="600" height="400" fill="url(#bg-telegram-vistas)"/>
<rect width="600" height="400" fill="url(#halo-telegram-vistas)"/>
<g transform="translate(300 200)">
<circle r="96" fill="#229ED9" opacity="0.14"/>
<circle r="96" fill="none" stroke="#229ED9" stroke-opacity="0.35" stroke-width="1.5"/>
<g transform="translate(-52 -52) scale(4.33)">
<path d="M12 5c-6 0-10 7-10 7s4 7 10 7 10-7 10-7-4-7-10-7Zm0 11a4 4 0 1 1 4-4 4 4 0 0 1-4 4Zm0-6a2 2 0 1 0 2 2 2 2 0 0 0-2-2Z" fill="#229ED9"/>
</g>
</g>
</svg>