<svg xmlns="http://www.w3.org/2000/svg" viewBox="0 0 600 400" width="600" height="400" role="img" aria-label="Visitas web para YouTube">
<defs>
<linearGradient id="bg-youtube-trafico" x1="0" y1="0" x2="1" y2="1">
<stop offset="0" stop-color="#171331"/><stop offset="1" stop-color="#0c0a18"/>
</linearGradient>
<radialGradient id="halo-youtube-trafico" cx="0.5" cy="0.42" r="0.62">
<stop offset="0" stop-color="#FF0000" stop-opacity="0.42"/>
<stop offset="1" stop-color="#FF0000" stop-opacity="0"/>
</radialGradient>
</defs>
<rect width="600" height="400" fill="url(#bg-youtube-trafico)"/>
<rect width="600" height="400" fill="url(#halo-youtube-trafico)"/>
<g transform="translate(300 200)">
<circle r="96" fill="#FF0000" opacity="0.14"/>
<circle r="96" fill="none" stroke="#FF0000" stroke-opacity="0.35" stroke-width="1.5"/>
<g transform="translate(-52 -52) scale(4.33)">
<path d="M12 2a10 10 0 1 0 10 10A10 10 0 0 0 12 2Zm0 2c1.4 0 3 2.6 3.4 6H8.6C9 6.6 10.6 4 12 4ZM4.3 11h2.3c.1-2 .5-3.8 1.2-5.2A8 8 0 0 0 4.3 11Zm0 2a8 8 0 0 0 3.5 5.2c-.7-1.4-1.1-3.2-1.2-5.2Zm4.3 0h6.8c-.4 3.4-2 6-3.4 6s-3-2.6-3.4-6Zm8.8 0h2.3a8 8 0 0 1-3.5 5.2c.7-1.4 1.1-3.2 1.2-5.2Zm0-2c-.1-2-.5-3.8-1.2-5.2A8 8 0 0 1 19.7 11Z" fill="#FF0000"/>
</g>
</g>
</svg>