<svg xmlns="http://www.w3.org/2000/svg" viewBox="0 0 600 400" width="600" height="400" role="img" aria-label="Compartidos para YouTube">
<defs>
<linearGradient id="bg-youtube-compartidos" x1="0" y1="0" x2="1" y2="1">
<stop offset="0" stop-color="#151129"/><stop offset="1" stop-color="#0b0918"/>
</linearGradient>
<radialGradient id="halo-youtube-compartidos" cx="0.78" cy="0.18" r="0.75">
<stop offset="0" stop-color="#FF0000" stop-opacity="0.55"/>
<stop offset="1" stop-color="#FF0000" stop-opacity="0"/>
</radialGradient>
<linearGradient id="ink-youtube-compartidos" x1="0" y1="0" x2="1" y2="1">
<stop offset="0" stop-color="#FF0000"/><stop offset="1" stop-color="#ff2e93"/>
</linearGradient>
</defs>
<rect width="600" height="400" fill="url(#bg-youtube-compartidos)"/>
<rect width="600" height="400" fill="url(#halo-youtube-compartidos)"/>
<circle cx="482" cy="86" r="118" fill="#FF0000" opacity="0.13"/>
<circle cx="96" cy="332" r="92" fill="#ff2e93" opacity="0.09"/>
<g transform="translate(56 128) scale(3.4)">
<path d="M18 8a3 3 0 1 0-2.8-4H15L8.6 9.4a3 3 0 1 0 0 5.2l6.6 3.9a3 3 0 1 0 1-1.7l-6.6-3.9a3 3 0 0 0 0-1.8l6.6-3.9A3 3 0 0 0 18 8Z" fill="url(#ink-youtube-compartidos)"/>
</g>
<text x="56" y="316" font-family="system-ui,-apple-system,Segoe UI,Roboto,sans-serif" font-size="34" font-weight="800" fill="#ffffff">Compartidos</text>
<text x="56" y="352" font-family="system-ui,-apple-system,Segoe UI,Roboto,sans-serif" font-size="22" font-weight="600" fill="#FF0000">para YouTube</text>
</svg>