<svg xmlns="http://www.w3.org/2000/svg" viewBox="0 0 600 400" width="600" height="400" role="img" aria-label="Reproducciones para YouTube">
<defs>
<linearGradient id="bg-youtube-reproducciones" x1="0" y1="0" x2="1" y2="1">
<stop offset="0" stop-color="#151129"/><stop offset="1" stop-color="#0b0918"/>
</linearGradient>
<radialGradient id="halo-youtube-reproducciones" cx="0.78" cy="0.18" r="0.75">
<stop offset="0" stop-color="#FF0000" stop-opacity="0.55"/>
<stop offset="1" stop-color="#FF0000" stop-opacity="0"/>
</radialGradient>
<linearGradient id="ink-youtube-reproducciones" x1="0" y1="0" x2="1" y2="1">
<stop offset="0" stop-color="#FF0000"/><stop offset="1" stop-color="#ff2e93"/>
</linearGradient>
</defs>
<rect width="600" height="400" fill="url(#bg-youtube-reproducciones)"/>
<rect width="600" height="400" fill="url(#halo-youtube-reproducciones)"/>
<circle cx="482" cy="86" r="118" fill="#FF0000" opacity="0.13"/>
<circle cx="96" cy="332" r="92" fill="#ff2e93" opacity="0.09"/>
<g transform="translate(56 128) scale(3.4)">
<path d="M9 19V7l10-3v12M9 19a3 3 0 1 1-3-3 3 3 0 0 1 3 3Zm10-3a3 3 0 1 1-3-3 3 3 0 0 1 3 3Z" fill="url(#ink-youtube-reproducciones)"/>
</g>
<text x="56" y="316" font-family="system-ui,-apple-system,Segoe UI,Roboto,sans-serif" font-size="34" font-weight="800" fill="#ffffff">Reproducciones</text>
<text x="56" y="352" font-family="system-ui,-apple-system,Segoe UI,Roboto,sans-serif" font-size="22" font-weight="600" fill="#FF0000">para YouTube</text>
</svg>